<svg width="353" height="67" viewBox="0 0 353 67" fill="none" xmlns="http://www.w3.org/2000/svg">
<path d="M34.6671 45.2683H14.2054L10.8197 55.187H0L18.4744 3.05765H30.4718L48.9462 55.187H38.0529L34.6671 45.2683ZM31.8702 36.9156L24.4363 15.1391L17.0024 36.9156H31.8702Z" fill="black"/>
<path d="M79.9935 55.187L66.1561 37.5868V55.187H55.8517V0H66.1561V31.3969L79.8463 13.8713H93.2421L75.2829 34.6037L93.3893 55.187H79.9935Z" fill="black"/>
<path d="M149.474 13.2747C154.479 13.2747 158.503 14.8408 161.545 17.9731C164.636 21.0556 166.182 25.3811 166.182 30.9495V55.187H155.877V32.3664C155.877 29.1348 155.068 26.6737 153.448 24.9833C151.829 23.2432 149.621 22.3731 146.824 22.3731C144.027 22.3731 141.795 23.2432 140.126 24.9833C138.507 26.6737 137.697 29.1348 137.697 32.3664V55.187H127.393V32.3664C127.393 29.1348 126.583 26.6737 124.964 24.9833C123.345 23.2432 121.137 22.3731 118.34 22.3731C115.494 22.3731 113.237 23.2432 111.568 24.9833C109.949 26.6737 109.139 29.1348 109.139 32.3664V55.187H98.8348V13.8713H109.139V18.868C110.464 17.1279 112.157 15.7606 114.218 14.7662C116.328 13.7719 118.634 13.2747 121.137 13.2747C124.326 13.2747 127.172 13.9708 129.675 15.3629C132.177 16.7053 134.115 18.6443 135.489 21.1799C136.814 18.7934 138.728 16.8793 141.23 15.4374C143.782 13.9956 146.53 13.2747 149.474 13.2747Z" fill="black"/>
<path d="M197.269 42.2553C197.269 43.1503 197.21 43.9557 197.092 44.6716H179.206C179.354 46.4615 179.972 47.8635 181.061 48.8778C182.151 49.892 183.49 50.3992 185.08 50.3992C187.376 50.3992 189.01 49.3998 189.982 47.4012H196.65C195.944 49.7876 194.59 51.7565 192.588 53.3077C190.585 54.829 188.127 55.5897 185.212 55.5897C182.857 55.5897 180.737 55.0677 178.853 54.0236C176.998 52.9497 175.541 51.4432 174.481 49.5042C173.451 47.5652 172.935 45.3279 172.935 42.7923C172.935 40.2268 173.451 37.9746 174.481 36.0356C175.512 34.0966 176.954 32.6051 178.809 31.561C180.664 30.5169 182.798 29.9949 185.212 29.9949C187.538 29.9949 189.614 30.502 191.439 31.5163C193.294 32.5305 194.722 33.9773 195.723 35.8566C196.753 37.7061 197.269 39.839 197.269 42.2553ZM190.865 40.4655C190.836 38.8546 190.262 37.5719 189.143 36.6173C188.024 35.6329 186.655 35.1407 185.036 35.1407C183.505 35.1407 182.209 35.618 181.15 36.5726C180.119 37.4973 179.486 38.795 179.251 40.4655H190.865Z" fill="#F3C869"/>
<path d="M211.144 55.5897C209.142 55.5897 207.346 55.2317 205.756 54.5158C204.166 53.77 202.9 52.7707 201.958 51.5178C201.045 50.2649 200.545 48.8778 200.457 47.3564H206.683C206.801 48.311 207.258 49.1015 208.052 49.728C208.877 50.3544 209.893 50.6676 211.1 50.6676C212.277 50.6676 213.19 50.429 213.838 49.9517C214.515 49.4744 214.853 48.8629 214.853 48.1171C214.853 47.3117 214.441 46.715 213.617 46.3272C212.822 45.9096 211.541 45.4622 209.775 44.9849C207.949 44.5374 206.448 44.075 205.27 43.5977C204.122 43.1204 203.121 42.3896 202.267 41.4052C201.443 40.4207 201.031 39.0933 201.031 37.4228C201.031 36.0505 201.413 34.7976 202.179 33.6641C202.974 32.5305 204.093 31.6356 205.535 30.9793C207.007 30.323 208.73 29.9949 210.702 29.9949C213.617 29.9949 215.943 30.7406 217.68 32.2322C219.417 33.6939 220.374 35.6777 220.55 38.1834H214.633C214.544 37.199 214.132 36.4234 213.396 35.8566C212.689 35.26 211.733 34.9617 210.526 34.9617C209.407 34.9617 208.538 35.1705 207.92 35.5882C207.331 36.0058 207.037 36.5875 207.037 37.3333C207.037 38.1685 207.449 38.8099 208.273 39.2573C209.098 39.675 210.378 40.1075 212.115 40.555C213.882 41.0024 215.339 41.4648 216.487 41.9421C217.636 42.4194 218.622 43.1652 219.446 44.1794C220.3 45.1638 220.742 46.4764 220.771 48.1171C220.771 49.549 220.374 50.8317 219.579 51.9653C218.813 53.0988 217.695 53.9938 216.222 54.65C214.78 55.2765 213.087 55.5897 211.144 55.5897Z" fill="#F3C869"/>
<path d="M233.045 35.5434V47.5354C233.045 48.3707 233.236 48.9822 233.619 49.37C234.031 49.728 234.708 49.9069 235.65 49.9069H238.521V55.187H234.635C229.423 55.187 226.818 52.6216 226.818 47.4907V35.5434H223.903V30.3976H226.818V24.2674H233.045V30.3976H238.521V35.5434H233.045Z" fill="#F3C869"/>
<path d="M253.832 55.5897C251.476 55.5897 249.356 55.0677 247.472 54.0236C245.588 52.9497 244.101 51.4432 243.012 49.5042C241.952 47.5652 241.422 45.3279 241.422 42.7923C241.422 40.2567 241.967 38.0194 243.056 36.0804C244.175 34.1414 245.691 32.6498 247.605 31.6057C249.518 30.5318 251.653 29.9949 254.008 29.9949C256.363 29.9949 258.498 30.5318 260.412 31.6057C262.325 32.6498 263.827 34.1414 264.916 36.0804C266.035 38.0194 266.594 40.2567 266.594 42.7923C266.594 45.3279 266.02 47.5652 264.872 49.5042C263.753 51.4432 262.222 52.9497 260.279 54.0236C258.366 55.0677 256.216 55.5897 253.832 55.5897ZM253.832 50.1307C254.95 50.1307 255.995 49.8622 256.967 49.3252C257.968 48.7585 258.763 47.9232 259.352 46.8195C259.941 45.7157 260.235 44.3733 260.235 42.7923C260.235 40.4357 259.617 38.6309 258.38 37.378C257.173 36.0953 255.686 35.4539 253.92 35.4539C252.153 35.4539 250.667 36.0953 249.46 37.378C248.282 38.6309 247.693 40.4357 247.693 42.7923C247.693 45.1489 248.267 46.9686 249.415 48.2513C250.593 49.5042 252.065 50.1307 253.832 50.1307Z" fill="#F3C869"/>
<path d="M269.54 42.7476C269.54 40.2716 270.04 38.079 271.041 36.1699C272.072 34.2309 273.455 32.7244 275.192 31.6505C276.93 30.5766 278.843 30.0396 280.934 30.0396C282.671 30.0396 284.202 30.3827 285.526 31.0688C286.881 31.7251 287.97 32.5752 288.794 33.6193V30.3976H295.021V67H288.794V51.7863C287.97 52.8602 286.866 53.7551 285.482 54.4711C284.098 55.187 282.538 55.545 280.801 55.545C278.74 55.545 276.841 55.008 275.104 53.9341C273.397 52.8304 272.042 51.309 271.041 49.37C270.04 47.431 269.54 45.2235 269.54 42.7476ZM288.794 42.7923C288.794 41.2709 288.485 39.9584 287.867 38.8546C287.249 37.7509 286.439 36.9156 285.438 36.3488C284.466 35.7821 283.421 35.4987 282.303 35.4987C281.213 35.4987 280.168 35.7821 279.167 36.3488C278.195 36.9156 277.401 37.7509 276.782 38.8546C276.164 39.9285 275.855 41.2262 275.855 42.7476C275.855 44.2689 276.164 45.5964 276.782 46.73C277.401 47.8337 278.195 48.669 279.167 49.2358C280.168 49.8025 281.213 50.0859 282.303 50.0859C283.421 50.0859 284.466 49.8025 285.438 49.2358C286.439 48.669 287.249 47.8337 287.867 46.73C288.485 45.6262 288.794 44.3137 288.794 42.7923Z" fill="#F3C869"/>
<path d="M324.156 30.3976V55.187H317.93V52.0548C317.135 53.1287 316.089 53.9789 314.794 54.6053C313.528 55.2019 312.144 55.5002 310.643 55.5002C308.729 55.5002 307.036 55.0975 305.564 54.2921C304.092 53.4568 302.929 52.2487 302.075 50.6676C301.251 49.0568 300.839 47.1476 300.839 44.9401V30.3976H307.022V44.0452C307.022 46.014 307.507 47.5354 308.479 48.6093C309.45 49.6534 310.775 50.1754 312.453 50.1754C314.161 50.1754 315.501 49.6534 316.472 48.6093C317.444 47.5354 317.93 46.014 317.93 44.0452V30.3976H324.156Z" fill="#F3C869"/>
<path d="M353 42.2553C353 43.1503 352.941 43.9557 352.823 44.6716H334.938C335.085 46.4615 335.703 47.8635 336.793 48.8778C337.882 49.892 339.221 50.3992 340.811 50.3992C343.108 50.3992 344.742 49.3998 345.713 47.4012H352.382C351.675 49.7876 350.321 51.7565 348.319 53.3077C346.317 54.829 343.858 55.5897 340.944 55.5897C338.588 55.5897 336.469 55.0677 334.584 54.0236C332.73 52.9497 331.272 51.4432 330.212 49.5042C329.182 47.5652 328.667 45.3279 328.667 42.7923C328.667 40.2268 329.182 37.9746 330.212 36.0356C331.243 34.0966 332.685 32.6051 334.54 31.561C336.395 30.5169 338.53 29.9949 340.944 29.9949C343.27 29.9949 345.345 30.502 347.171 31.5163C349.025 32.5305 350.453 33.9773 351.454 35.8566C352.485 37.7061 353 39.839 353 42.2553ZM346.597 40.4655C346.567 38.8546 345.993 37.5719 344.874 36.6173C343.755 35.6329 342.386 35.1407 340.767 35.1407C339.236 35.1407 337.941 35.618 336.881 36.5726C335.85 37.4973 335.217 38.795 334.982 40.4655H346.597Z" fill="#F3C869"/>
</svg>
